<svg fill="#000000" xmlns="http://www.w3.org/2000/svg" viewBox="0 0 650.38 434.25"><g id="Layer_2" data-name="Layer 2"><g id="Layer_1-2" data-name="Layer 1"><path d="M102.71,238.34c-1.17-19-3.23-37.33-3.26-55.72,0-36.44,5.26-72.29,14.82-107.47,2.36-8.66,7-11.33,15.63-9.09a418.57,418.57,0,0,1,75.31,27.59c1.32.63,2.55,1.42,4,2.22-4.51,10.43-8.91,20.62-13.24,30.65L142.37,104.8c-1.5,8.24-2.92,15.34-4.08,22.49A351.7,351.7,0,0,0,134.2,200c2.34,49.22,16.58,93.86,51.14,130.47,22,23.3,48.14,40.91,76.6,55.26,7.34,3.7,14.89,7,22.34,10.51l.66-.91c-4-5.23-8-10.4-11.9-15.7-24.34-33.33-43.7-69.14-54.13-109.38-12.84-49.53-7-97.34,12.84-143.92,17.67-41.58,43.31-77.85,73.89-110.81,3.74-4,7.56-8,11.52-11.8,5-4.77,10.77-5,15.57-.28a413.14,413.14,0,0,1,62,77.41,10.4,10.4,0,0,1,.64,1.82L368.11,101,325.85,44.43c-24.07,26.84-43.65,54.91-58.66,86.66,22.43,17.39,42.08,37.35,57.52,61.63a8.18,8.18,0,0,0,1.57-1.33c25.15-38.52,59.86-66.24,99.72-88a407.28,407.28,0,0,1,95.41-37.52c7.25-1.84,12,.82,14.06,8.06a370.33,370.33,0,0,1,12.7,66.55c1.36,14.4,2.74,28.89,2.55,43.33-.23,17.92-2.07,35.83-3.26,54.35,1,0,2.92.2,4.82.2q42.75,0,85.5,0c9.86,0,12.39,2.63,12.49,12.39.2,20.16.7,40.39-5.11,60-19.43,65.56-62.43,106.1-129.4,120.46-10.64,2.28-21.81,2.9-32.74,2.93q-159.49.3-319,.12c-78.24,0-146.47-56.6-161.27-133.37C-.72,282.81.12,264.71,0,246.58c0-3.91,2.4-6.54,6.13-7.55a25,25,0,0,1,6.42-.67q42.5-.06,85,0Zm294-73.75c-2.36,1.77-3.59,2.59-4.69,3.55C364.41,192,344.61,221,334.28,256.22c-1.72,5.84-4.44,8.25-9.14,8.27s-7.48-2.42-9.2-8.18c-7.2-24.06-18.39-46-35-65-8.05-9.22-17-17.66-26.09-27-.89,2.4-1.35,3.44-1.66,4.52-10.44,36.88-8.58,73.31,3.87,109.39,12.83,37.16,33.53,69.71,58.41,99.81,3,3.66,6.21,7.21,9.65,11.2,1.2-1.44,1.92-2.34,2.68-3.2a363.81,363.81,0,0,0,42.44-58.53c22.5-39.09,37.17-80.31,32.58-126.32C401.67,189.22,398.89,177.39,396.69,164.59ZM365,396.1c1.79-.62,3-.94,4.13-1.44a353.4,353.4,0,0,0,56.41-30.84c59-39.67,88.35-95.45,90.5-166.11A368.31,368.31,0,0,0,512.89,134c-1.35-9.34-3.13-18.61-4.81-28.44-29.6,9.61-57.06,21.93-82.86,38.17.6,1.9,1.08,3.47,1.58,5,11.95,36.83,14.84,74.15,6.62,112.21S408.58,333.46,387,365.6C380.1,375.77,372.66,385.53,365,396.1Zm-149.1,3.13c-23.6-15-44.93-32.39-63-53.56a210.57,210.57,0,0,1-40.37-72.23H34.62a12.57,12.57,0,0,0-.4,1.83c0,1.33-.08,2.67,0,4,.84,21.55,6.56,41.73,18,60,22.18,35.4,54.05,56.33,95.82,59.64C170.35,400.68,192.94,399.23,215.94,399.23Zm218.79.77c19.31,0,38.61.07,57.92-.05a110.72,110.72,0,0,0,14.43-1.1c51.69-7.18,92.57-43.77,105.36-94.33,2.56-10.13,4.16-20.42,3.34-31.13H537.61C519.69,329.06,482.42,368.51,434.73,400Z" transform="translate(0 0)"/></g></g></svg>